<mxfile host="app.diagrams.net" agent="Mozilla/5.0 (Macintosh; Intel Mac OS X 10_15_7) AppleWebKit/605.1.15 (KHTML, like Gecko) Version/17.4.1 Safari/605.1.15" version="24.8.3">
  <diagram name="Page-1" id="A5HPzC7_1pOJyTJEe-d0">
    <mxGraphModel dx="1382" dy="795" grid="1" gridSize="10" guides="1" tooltips="1" connect="1" arrows="1" fold="1" page="1" pageScale="1" pageWidth="827" pageHeight="1169" math="0" shadow="0">
      <root>
        <mxCell id="0" />
        <mxCell id="1" parent="0" />
        <mxCell id="TYlrIW4R4svU7PFnsjWF-2" value="" style="edgeStyle=orthogonalEdgeStyle;rounded=0;orthogonalLoop=1;jettySize=auto;html=1;" edge="1" parent="1" source="ZSf4RyIZ0OxHhmhDCDDA-1" target="ZSf4RyIZ0OxHhmhDCDDA-2">
          <mxGeometry relative="1" as="geometry" />
        </mxCell>
        <mxCell id="ZSf4RyIZ0OxHhmhDCDDA-1" value="System" style="rounded=0;whiteSpace=wrap;html=1;" parent="1" vertex="1">
          <mxGeometry x="240" y="200" width="120" height="60" as="geometry" />
        </mxCell>
        <mxCell id="TYlrIW4R4svU7PFnsjWF-4" value="" style="edgeStyle=orthogonalEdgeStyle;rounded=0;orthogonalLoop=1;jettySize=auto;html=1;entryX=0.5;entryY=0;entryDx=0;entryDy=0;" edge="1" parent="1" source="ZSf4RyIZ0OxHhmhDCDDA-2" target="ZSf4RyIZ0OxHhmhDCDDA-6">
          <mxGeometry relative="1" as="geometry">
            <mxPoint x="910" y="330" as="targetPoint" />
          </mxGeometry>
        </mxCell>
        <mxCell id="ZSf4RyIZ0OxHhmhDCDDA-2" value="Database" style="rounded=0;whiteSpace=wrap;html=1;" parent="1" vertex="1">
          <mxGeometry x="470" y="200" width="120" height="60" as="geometry" />
        </mxCell>
        <mxCell id="TYlrIW4R4svU7PFnsjWF-1" value="" style="edgeStyle=orthogonalEdgeStyle;rounded=0;orthogonalLoop=1;jettySize=auto;html=1;" edge="1" parent="1" source="ZSf4RyIZ0OxHhmhDCDDA-3" target="ZSf4RyIZ0OxHhmhDCDDA-14">
          <mxGeometry relative="1" as="geometry" />
        </mxCell>
        <mxCell id="TYlrIW4R4svU7PFnsjWF-9" value="" style="edgeStyle=orthogonalEdgeStyle;rounded=0;orthogonalLoop=1;jettySize=auto;html=1;entryX=0.5;entryY=1;entryDx=0;entryDy=0;" edge="1" parent="1" source="ZSf4RyIZ0OxHhmhDCDDA-3" target="ZSf4RyIZ0OxHhmhDCDDA-1">
          <mxGeometry relative="1" as="geometry">
            <mxPoint x="300" y="250" as="targetPoint" />
            <Array as="points">
              <mxPoint x="480" y="331" />
              <mxPoint x="301" y="331" />
            </Array>
          </mxGeometry>
        </mxCell>
        <mxCell id="ZSf4RyIZ0OxHhmhDCDDA-3" value="User" style="rounded=0;whiteSpace=wrap;html=1;" parent="1" vertex="1">
          <mxGeometry x="240" y="410" width="480" height="60" as="geometry" />
        </mxCell>
        <mxCell id="TYlrIW4R4svU7PFnsjWF-5" value="" style="edgeStyle=orthogonalEdgeStyle;rounded=0;orthogonalLoop=1;jettySize=auto;html=1;" edge="1" parent="1" source="ZSf4RyIZ0OxHhmhDCDDA-6" target="ZSf4RyIZ0OxHhmhDCDDA-16">
          <mxGeometry relative="1" as="geometry" />
        </mxCell>
        <mxCell id="TYlrIW4R4svU7PFnsjWF-13" value="" style="edgeStyle=orthogonalEdgeStyle;rounded=0;orthogonalLoop=1;jettySize=auto;html=1;entryX=0.5;entryY=1;entryDx=0;entryDy=0;" edge="1" parent="1" source="ZSf4RyIZ0OxHhmhDCDDA-6" target="ZSf4RyIZ0OxHhmhDCDDA-1">
          <mxGeometry relative="1" as="geometry">
            <mxPoint x="480" y="330" as="targetPoint" />
            <Array as="points">
              <mxPoint x="675" y="360" />
              <mxPoint x="675" y="330" />
              <mxPoint x="300" y="330" />
            </Array>
          </mxGeometry>
        </mxCell>
        <mxCell id="ZSf4RyIZ0OxHhmhDCDDA-6" value="Manager" style="rounded=0;whiteSpace=wrap;html=1;" parent="1" vertex="1">
          <mxGeometry x="780" y="330" width="260" height="60" as="geometry" />
        </mxCell>
        <mxCell id="TYlrIW4R4svU7PFnsjWF-11" value="" style="edgeStyle=orthogonalEdgeStyle;rounded=0;orthogonalLoop=1;jettySize=auto;html=1;" edge="1" parent="1" source="ZSf4RyIZ0OxHhmhDCDDA-7" target="ZSf4RyIZ0OxHhmhDCDDA-1">
          <mxGeometry relative="1" as="geometry">
            <mxPoint x="120" y="300" as="targetPoint" />
            <Array as="points">
              <mxPoint x="120" y="330" />
              <mxPoint x="300" y="330" />
            </Array>
          </mxGeometry>
        </mxCell>
        <mxCell id="ZSf4RyIZ0OxHhmhDCDDA-7" value="Staff" style="rounded=0;whiteSpace=wrap;html=1;" parent="1" vertex="1">
          <mxGeometry x="40" y="410" width="160" height="60" as="geometry" />
        </mxCell>
        <mxCell id="ZSf4RyIZ0OxHhmhDCDDA-14" value="private String firstName&lt;div&gt;private String lastName&lt;/div&gt;&lt;div&gt;private String emailAddress&lt;/div&gt;&lt;div&gt;private String homeAddress&lt;/div&gt;&lt;div&gt;private LocalDate birthday&lt;/div&gt;&lt;div&gt;private LocalDate membershipExpiry&lt;/div&gt;&lt;div&gt;private LocalDate membershipInitialized&lt;/div&gt;&lt;div&gt;private LocalDate lastTimeCheckedIn&lt;/div&gt;&lt;div&gt;private int phoneNumber&lt;/div&gt;&lt;div&gt;private int universalIdentificationNumber&lt;/div&gt;&lt;div&gt;private Image identificationPhoto&lt;/div&gt;&lt;div&gt;private Image officialIdentification&lt;/div&gt;&lt;div&gt;private Object payment&lt;/div&gt;&lt;div&gt;private Object membershipType&amp;nbsp;&lt;/div&gt;" style="rounded=0;whiteSpace=wrap;html=1;align=left;" parent="1" vertex="1">
          <mxGeometry x="240" y="470" width="480" height="200" as="geometry" />
        </mxCell>
        <mxCell id="ZSf4RyIZ0OxHhmhDCDDA-15" value="&lt;div&gt;&lt;span class=&quot;hljs-keyword&quot;&gt;public&lt;/span&gt;&lt;span style=&quot;font-size: medium;&quot;&gt;&amp;nbsp;&lt;/span&gt;&lt;span class=&quot;hljs-title function_&quot;&gt;User&lt;/span&gt;&lt;span class=&quot;hljs-params&quot;&gt;(String firstName, String lastName, String emailAddress, String homeAddress, LocalDate birthday, LocalDate membershipExpiry, LocalDate membershipInitialized, LocalDate lastTimeCheckedIn,&amp;nbsp;&lt;span class=&quot;hljs-type&quot;&gt;int&lt;/span&gt;&amp;nbsp;phoneNumber,&amp;nbsp;&lt;span class=&quot;hljs-type&quot;&gt;int&amp;nbsp;&lt;/span&gt;universalIdentificationNumber, Image payment, Image membershipType)&lt;/span&gt;&lt;br&gt;&lt;/div&gt;&lt;div&gt;&lt;span class=&quot;hljs-params&quot;&gt;&lt;br&gt;&lt;/span&gt;&lt;/div&gt;public String getFirstName()&lt;div&gt;public String getLastName()&lt;/div&gt;&lt;div&gt;public String getEmailAddress()&lt;/div&gt;&lt;div&gt;public String getHomeAddress()&lt;/div&gt;&lt;div&gt;public LocalDate getBirthday()&lt;/div&gt;&lt;div&gt;public LocalDate getMembershipExpiry()&lt;br&gt;&lt;/div&gt;&lt;div&gt;public LocalDate getMembershipInitialized()&lt;br&gt;&lt;/div&gt;&lt;div&gt;public LocalDate getLastTimeCheckedIn()&lt;br&gt;&lt;/div&gt;&lt;div&gt;public int getPhoneNumber()&lt;/div&gt;&lt;div&gt;public int getUniversalIdentificationNumber()&lt;br&gt;&lt;/div&gt;&lt;div&gt;public Image getPayment()&lt;br&gt;&lt;/div&gt;&lt;div&gt;public Image getMembershipType()&lt;/div&gt;&lt;div&gt;&lt;div&gt;public void setFirstName(String firstName)&amp;nbsp;&lt;/div&gt;&lt;div&gt;public void setLastName(String lastName)&amp;nbsp;&lt;/div&gt;&lt;div&gt;public void setEmailAddress(String emailAddress)&amp;nbsp;&lt;/div&gt;&lt;div&gt;public void setHomeAddress(String homeAddress)&amp;nbsp;&lt;/div&gt;&lt;div&gt;public void setBirthday(LocalDate birthday)&amp;nbsp;&lt;/div&gt;&lt;div&gt;public void setMembershipExpiry(LocalDate membershipExpiry)&amp;nbsp;&lt;/div&gt;&lt;div&gt;public void setMembershipInitialized(LocalDate membershipInitialized)&amp;nbsp;&lt;/div&gt;&lt;div&gt;public void setLastTimeCheckedIn(LocalDate lastTimeCheckedIn)&amp;nbsp;&lt;/div&gt;&lt;div&gt;public void setPhoneNumber(int phoneNumber)&amp;nbsp;&lt;/div&gt;&lt;div&gt;public void setUniversalIdentificationNumber(int universalIdentificationNumber)&amp;nbsp;&lt;/div&gt;&lt;div&gt;public void setPayment(Image payment)&amp;nbsp;&lt;/div&gt;&lt;div&gt;public void setMembershipType(Image membershipType)&amp;nbsp;&lt;/div&gt;&lt;/div&gt;&lt;div&gt;&lt;br&gt;&lt;/div&gt;" style="rounded=0;whiteSpace=wrap;html=1;align=left;" parent="1" vertex="1">
          <mxGeometry x="240" y="670" width="480" height="430" as="geometry" />
        </mxCell>
        <mxCell id="ZSf4RyIZ0OxHhmhDCDDA-16" value="private String firstName&lt;div&gt;private String lastName&lt;/div&gt;&lt;div&gt;private String emailAddress&lt;/div&gt;&lt;div&gt;private String homeAddress&lt;/div&gt;" style="rounded=0;whiteSpace=wrap;html=1;align=left;" parent="1" vertex="1">
          <mxGeometry x="780" y="390" width="260" height="170" as="geometry" />
        </mxCell>
        <mxCell id="ZSf4RyIZ0OxHhmhDCDDA-18" value="private String firstName&lt;div&gt;private String lastName&lt;/div&gt;&lt;div&gt;private String emailAddress&lt;/div&gt;&lt;div&gt;private String homeAddress&lt;/div&gt;&lt;div&gt;private int universalIdentificationNumber&lt;/div&gt;" style="rounded=0;whiteSpace=wrap;html=1;align=left;" parent="1" vertex="1">
          <mxGeometry x="40" y="470" width="160" height="190" as="geometry" />
        </mxCell>
      </root>
    </mxGraphModel>
  </diagram>
</mxfile>
